<svg xmlns="http://www.w3.org/2000/svg" width="64" height="64" viewBox="410.482 895.573 211.796 266.897"><rect x="410.482" y="895.573" width="211.796" height="266.897" rx="30" fill="#0058bc" stroke="#d8e2ff" stroke-width="10" /><path d="M537.846 895.573C539.179 903.387 538.532 934.044 537.297 942.975C536.907 945.798 534.441 950.279 533.011 952.855C515.062 962.789 462.144 976.748 452.295 990.495C450.197 993.424 449.456 996.67 449.038 1000.19C448.015 1008.82 447.818 1066.29 449.19 1072.08C451.553 1082.05 467.493 1088.67 475.486 1093.97C476.346 1101.66 476.299 1105.33 476.011 1113.12C468.6 1117.54 449.923 1124.15 440.792 1127.98C435.271 1128.39 413.729 1117.26 413.447 1112.52C410.482 1062.6 412.889 1011.73 412.431 961.607C412.389 957.021 413.596 950.058 415.086 945.751C421.954 940.358 469.889 922.245 480.976 918.01C496.521 912.073 522.325 900.848 537.846 895.573Z" fill="#ebea00" /><path d="M592.358 927.76C593.667 927.422 594.541 927.414 595.899 927.651C601.461 928.625 617.897 938.59 620.169 943.936C622.278 948.898 621.578 1085.28 621.037 1100.04C620.913 1103.43 620.938 1108.3 619.131 1111.24C616.874 1114.92 611.261 1117.84 607.487 1119.7C595.365 1125.68 581.815 1129.99 569.185 1134.9L499.427 1162.29C497.884 1162.23 498.691 1162.47 497.201 1161.09C495.993 1150.22 496.808 1126.33 496.994 1114.6C518.362 1103.81 545.784 1097.56 565.644 1086.11C573.596 1081.52 579.617 1074.91 581.753 1065.78C583.584 1057.96 584.52 980.453 581.695 975.568C576.598 966.755 563.121 966.512 558.315 957.763C556.252 954.006 556.552 948.573 558.143 944.688C561.148 937.347 585.041 930.78 592.358 927.76Z" fill="#ebea00" /><path d="M553.346 987.108L554.251 988.123C556.359 997.665 557.138 1048.79 552.381 1058.8C545.584 1073.11 515.062 1080.87 499.31 1086.4L498.125 1086.12C495.792 1082.43 496.919 1040.78 496.965 1033.24C533.471 1014.83 533.7 1028.05 553.346 987.108Z" fill="#ebea00" /></svg>