<svg xmlns="http://www.w3.org/2000/svg" viewBox="0 0 64 64" width="64" height="64">
  <rect width="64" height="64" rx="12" fill="#f6f4ef"></rect>
  <g transform="translate(0 12.93) scale(0.2167) translate(-399.3 0)" fill="#231f20">
    <path d="m 0,0 H -11.883 V 49.418 H 0 c 13.766,0 21.768,-9.178 21.768,-24.826 C 21.768,9.059 13.766,0 0,0 m 0,64.714 h -27.958 c -1.519,0 -2.75,-1.231 -2.75,-2.75 v -74.509 c 0,-1.519 1.231,-2.75 2.75,-2.75 H 0 c 25.297,0 41.064,14.943 41.064,39.887 0,24.944 -15.767,40.122 -41.064,40.122" transform="matrix(1.3333333,0,0,-1.3333333,467.71787,123.00173)"></path>
    <path d="m 0,0 c -11.063,0 -20.064,9.463 -20.064,21.095 0,11.632 9.001,21.096 20.064,21.096 11.064,0 20.063,-9.464 20.063,-21.096 C 20.063,9.463 11.064,0 0,0 m 0,60.079 c -21.495,0 -38.983,-17.489 -38.983,-38.984 0,-21.495 17.488,-38.983 38.983,-38.983 21.495,0 38.981,17.488 38.981,38.983 C 38.981,42.59 21.495,60.079 0,60.079" transform="matrix(1.3333333,0,0,-1.3333333,581.95707,119.546)"></path>
    <path d="m 0,0 c -2.282,0 -4.131,1.85 -4.131,4.131 0,2.281 1.849,4.131 4.131,4.131 2.281,0 4.131,-1.85 4.131,-4.131 C 4.131,1.85 2.281,0 0,0 m -0.005,17.426 c -7.346,0 -13.301,-5.955 -13.301,-13.301 0,-7.345 5.955,-13.3 13.301,-13.3 7.345,0 13.3,5.955 13.3,13.3 0,7.346 -5.955,13.301 -13.3,13.301" transform="matrix(1.3333333,0,0,-1.3333333,629.72413,23.2348)"></path>
    <path d="m 0,0 c -1.219,0 -2.206,0.988 -2.206,2.206 0,1.219 0.987,2.207 2.206,2.207 1.219,0 2.206,-0.988 2.206,-2.207 C 2.206,0.988 1.219,0 0,0 m 0,10.095 c -4.357,0 -7.888,-3.532 -7.888,-7.889 0,-4.356 3.531,-7.888 7.888,-7.888 4.357,0 7.888,3.532 7.888,7.888 0,4.357 -3.531,7.889 -7.888,7.889" transform="matrix(1.3333333,0,0,-1.3333333,656.1488,57.100267)"></path>
  </g>
</svg>