<?xml version="1.0" encoding="UTF-8" standalone="no"?>
<!-- Created with Inkscape (http://www.inkscape.org/) -->

<svg
   version="1.1"
   id="svg1"
   width="666.66669"
   height="193.73199"
   viewBox="0 0 666.66669 193.73199"
   xmlns="http://www.w3.org/2000/svg"
   xmlns:svg="http://www.w3.org/2000/svg">
  <defs
     id="defs1">
    <clipPath
       clipPathUnits="userSpaceOnUse"
       id="clipPath4">
      <path
         d="M -43.180601,66.483602 H 456.81941 V -78.815402 H -43.180601 Z"
         id="path4" />
    </clipPath>
    <clipPath
       clipPathUnits="userSpaceOnUse"
       id="clipPath9">
      <path
         d="M -214.21851,27.538 H 285.7815 v -145.299 h -500.00001 z"
         id="path9" />
    </clipPath>
  </defs>
  <g
     id="g1">
    <g
       id="group-MC0">
      <path
         id="path2"
         d="m 0,0 c -11.063,0 -20.064,9.463 -20.064,21.095 0,11.632 9.001,21.096 20.064,21.096 11.064,0 20.063,-9.464 20.063,-21.096 C 20.063,9.463 11.064,0 0,0 m 0,60.079 c -21.495,0 -38.983,-17.489 -38.983,-38.984 0,-21.495 17.488,-38.983 38.983,-38.983 21.495,0 38.981,17.488 38.981,38.983 C 38.981,42.59 21.495,60.079 0,60.079"
         style="fill:#231f20;fill-opacity:1;fill-rule:nonzero;stroke:none"
         transform="matrix(1.3333333,0,0,-1.3333333,581.95707,119.546)" />
      <path
         id="path3"
         d="M 0,0 H -24.355 V 24.002 H 0.47 C 8.942,24.002 13.414,19.296 13.414,12 13.414,4.824 9.177,0 0,0 m 0.824,38.945 h -41.255 c -1.518,0 -2.75,-1.231 -2.75,-2.75 v -74.509 c 0,-1.519 1.232,-2.75 2.75,-2.75 h 13.326 c 1.519,0 2.75,1.231 2.75,2.75 v 23.371 H 1.059 c 19.413,0 31.768,9.884 31.768,27.061 0,16.826 -12.237,26.827 -32.003,26.827"
         style="fill:#231f20;fill-opacity:1;fill-rule:nonzero;stroke:none"
         transform="matrix(1.3333333,0,0,-1.3333333,57.574133,88.6448)"
         clip-path="url(#clipPath4)" />
      <path
         id="path5"
         d="m 0,0 v 10.269 c 0,1.519 -1.231,2.75 -2.75,2.75 h -32.43 v 14.808 l 23.34,16.343 c 1.244,0.871 1.547,2.586 0.675,3.83 l -5.618,8.024 c -0.871,1.244 -2.586,1.546 -3.83,0.675 l -14.567,-10.2 v 14.622 c 0,1.519 -1.232,2.75 -2.75,2.75 h -13.326 c -1.519,0 -2.75,-1.231 -2.75,-2.75 V 33.317 L -67.513,23.86 c -1.244,-0.872 -1.546,-2.586 -0.675,-3.831 l 5.618,-8.023 c 0.872,-1.245 2.586,-1.547 3.831,-0.676 l 4.733,3.315 V 0 c 0,-1.519 1.231,-2.75 2.75,-2.75 H -2.75 C -1.231,-2.75 0,-1.519 0,0"
         style="fill:#231f20;fill-opacity:1;fill-rule:nonzero;stroke:none"
         transform="matrix(1.3333333,0,0,-1.3333333,192.7052,121.87867)" />
      <path
         id="path6"
         d="M 0,0 H -11.883 V 49.418 H 0 c 13.766,0 21.768,-9.178 21.768,-24.826 C 21.768,9.059 13.766,0 0,0 m 0,64.714 h -27.958 c -1.519,0 -2.75,-1.231 -2.75,-2.75 v -74.509 c 0,-1.519 1.231,-2.75 2.75,-2.75 H 0 c 25.297,0 41.064,14.943 41.064,39.887 0,24.944 -15.767,40.122 -41.064,40.122"
         style="fill:#231f20;fill-opacity:1;fill-rule:nonzero;stroke:none"
         transform="matrix(1.3333333,0,0,-1.3333333,467.71787,123.00173)" />
      <path
         id="path7"
         d="m 0,0 h -13.326 c -1.518,0 -2.75,-1.231 -2.75,-2.75 v -46.614 l -27.708,47.988 c -0.491,0.851 -1.399,1.375 -2.381,1.375 L -60.653,0 c -1.519,0 -2.75,-1.231 -2.75,-2.75 v -74.509 c 0,-1.519 1.231,-2.75 2.75,-2.75 h 13.325 c 1.519,0 2.75,1.231 2.75,2.75 v 46.686 l 27.748,-48.061 c 0.492,-0.851 1.399,-1.375 2.382,-1.375 H 0 c 1.519,0 2.75,1.231 2.75,2.75 V -2.75 C 2.75,-1.231 1.519,0 0,0"
         style="fill:#231f20;fill-opacity:1;fill-rule:nonzero;stroke:none"
         transform="matrix(1.3333333,0,0,-1.3333333,382.66933,36.717467)" />
      <path
         id="path8"
         d="m 0,0 h -13.934 c -1.223,0 -2.292,-0.817 -2.632,-1.991 -4.392,-15.141 -9.821,-28.89 -17.462,-41.328 L -53.487,-1.588 C -53.939,-0.619 -54.911,0 -55.98,0 h -14.703 c -2.011,0 -3.342,-2.089 -2.492,-3.912 l 26.371,-56.554 c -14.149,-15.754 -33.794,-29.011 -62.213,-40.018 -1.408,-0.545 -2.133,-2.116 -1.602,-3.529 l 4.8,-11.947 c 0.537,-1.429 2.157,-2.184 3.57,-1.606 49.198,20.104 85.798,45.667 104.905,114.079 C 3.145,-1.739 1.815,0 0,0"
         style="fill:#231f20;fill-opacity:1;fill-rule:nonzero;stroke:none"
         transform="matrix(1.3333333,0,0,-1.3333333,285.62467,36.717333)"
         clip-path="url(#clipPath9)" />
      <path
         id="path10"
         d="m 0,0 c -2.282,0 -4.131,1.85 -4.131,4.131 0,2.281 1.849,4.131 4.131,4.131 2.281,0 4.131,-1.85 4.131,-4.131 C 4.131,1.85 2.281,0 0,0 m -0.005,17.426 c -7.346,0 -13.301,-5.955 -13.301,-13.301 0,-7.345 5.955,-13.3 13.301,-13.3 7.345,0 13.3,5.955 13.3,13.3 0,7.346 -5.955,13.301 -13.3,13.301"
         style="fill:#231f20;fill-opacity:1;fill-rule:nonzero;stroke:none"
         transform="matrix(1.3333333,0,0,-1.3333333,629.72413,23.2348)" />
      <path
         id="path11"
         d="m 0,0 c -1.219,0 -2.206,0.988 -2.206,2.206 0,1.219 0.987,2.207 2.206,2.207 1.219,0 2.206,-0.988 2.206,-2.207 C 2.206,0.988 1.219,0 0,0 m 0,10.095 c -4.357,0 -7.888,-3.532 -7.888,-7.889 0,-4.356 3.531,-7.888 7.888,-7.888 4.357,0 7.888,3.532 7.888,7.888 0,4.357 -3.531,7.889 -7.888,7.889"
         style="fill:#231f20;fill-opacity:1;fill-rule:nonzero;stroke:none"
         transform="matrix(1.3333333,0,0,-1.3333333,656.1488,57.100267)" />
    </g>
  </g>
</svg>
