<svg xmlns="http://www.w3.org/2000/svg" width="1188.208" height="266.897" viewBox="410.482 895.573 1188.208 266.897"><path d="M1490.26 981.662C1491.57 981.527 1492.89 981.42 1494.21 981.34C1533.07 979.054 1546.45 1003.58 1547.45 1038.05C1548.37 1070.26 1536.55 1101.05 1498.53 1100.03C1483.69 1099.63 1476.32 1095.47 1466.46 1084.98L1466.45 1112.55C1466.68 1125.34 1470.47 1142.63 1451.73 1140.45C1446.76 1139.87 1440.78 1140.83 1437.36 1137.13C1435.72 1132.27 1435.88 996.551 1437.44 986.124C1440.53 982.061 1460 982.184 1463.42 984.766C1465.58 988.298 1465.03 992.116 1465.06 996.447C1474.16 987.107 1477.85 985 1490.26 981.662ZM1496.68 1076.17C1512.46 1072.13 1516.99 1059.75 1517.32 1044.46C1517.82 1021.27 1513.41 1004.09 1486.78 1005.05C1463.87 1011.73 1463.19 1037.17 1467.47 1057.19C1470.66 1072.13 1482.6 1076.66 1496.68 1076.17Z" id="part-01" fill="#414755" /><path d="M737.781 981.61C739.737 981.438 741.698 981.323 743.662 981.266C781.384 980.046 793.184 1007.12 793.718 1039.56C794.243 1071.49 781.832 1101.34 744.62 1100.05C729.688 1099.54 722.376 1095.17 712.515 1084.57L712.633 1109.86C712.531 1116.51 713.125 1123.18 712.952 1129.81C712.874 1132.82 712.209 1136.06 709.571 1137.92C704.903 1141.21 693.212 1140.51 687.781 1139.62C686.371 1139.39 684.59 1138.91 683.824 1137.61C681.789 1134.15 682.109 996.203 683.638 986.088C687.765 981.869 705.79 982.059 709.808 985.423C711.745 989.025 711.254 992.434 711.257 996.646C720.384 987.105 725.059 984.322 737.781 981.61ZM742.977 1076.17C765.867 1069.96 766.107 1042.88 761.631 1023.49C758.217 1008.7 746.99 1004.36 732.901 1005.04C725.789 1007.01 720.639 1009.74 717.176 1016.36C709.03 1031.95 708.39 1064.58 726.485 1073.81C732.067 1076.66 737.106 1076.39 742.977 1076.17Z" id="part-02" fill="#0058bc" /><path d="M1202.2 941.485C1207.79 941.374 1225.44 939.943 1229 943.803C1230.49 958.621 1230.66 1092.58 1228.72 1095.41C1220.94 1098.65 1210.23 1101.6 1203 1095.16C1200.87 1093.25 1201.32 1087.94 1201.31 1085.16C1185.72 1101.41 1167.91 1102.84 1147.38 1097.02C1144.06 1095.42 1139.75 1092.96 1136.98 1090.49C1113.55 1070.24 1112.8 1017.19 1132.96 994.701C1150.8 974.79 1181.83 977.745 1200.19 995.354C1200.15 985.999 1198.65 947.764 1202.2 941.485ZM1180.36 1076.11C1187.13 1074.04 1194.03 1070.12 1196.47 1063.15C1205.23 1038.05 1204.05 1003 1169.31 1005.09C1146.56 1012.18 1146.53 1039.05 1151.57 1058.78C1155.27 1073.27 1166.73 1076.68 1180.36 1076.11Z" id="part-03" fill="#004493" /><path d="M537.846 895.573C539.179 903.387 538.532 934.044 537.297 942.975C536.907 945.798 534.441 950.279 533.011 952.855C515.062 962.789 462.144 976.748 452.295 990.495C450.197 993.424 449.456 996.67 449.038 1000.19C448.015 1008.82 447.818 1066.29 449.19 1072.08C451.553 1082.05 467.493 1088.67 475.486 1093.97C476.346 1101.66 476.299 1105.33 476.011 1113.12C468.6 1117.54 449.923 1124.15 440.792 1127.98C435.271 1128.39 413.729 1117.26 413.447 1112.52C410.482 1062.6 412.889 1011.73 412.431 961.607C412.389 957.021 413.596 950.058 415.086 945.751C421.954 940.358 469.889 922.245 480.976 918.01C496.521 912.073 522.325 900.848 537.846 895.573Z" id="part-04" fill="#ebea00" /><path d="M592.358 927.76C593.667 927.422 594.541 927.414 595.899 927.651C601.461 928.625 617.897 938.59 620.169 943.936C622.278 948.898 621.578 1085.28 621.037 1100.04C620.913 1103.43 620.938 1108.3 619.131 1111.24C616.874 1114.92 611.261 1117.84 607.487 1119.7C595.365 1125.68 581.815 1129.99 569.185 1134.9L499.427 1162.29C497.884 1162.23 498.691 1162.47 497.201 1161.09C495.993 1150.22 496.808 1126.33 496.994 1114.6C518.362 1103.81 545.784 1097.56 565.644 1086.11C573.596 1081.52 579.617 1074.91 581.753 1065.78C583.584 1057.96 584.52 980.453 581.695 975.568C576.598 966.755 563.121 966.512 558.315 957.763C556.252 954.006 556.552 948.573 558.143 944.688C561.148 937.347 585.041 930.78 592.358 927.76Z" id="part-05" fill="#ebea00" /><path d="M1294.88 981.75C1324.42 978.352 1355.19 988.645 1360.35 1022.47C1365.85 1058.51 1358.91 1092.08 1317.22 1099.45C1288.95 1101.5 1257.76 1095.15 1252 1061.19C1245.79 1024.53 1251.95 989.42 1294.88 981.75ZM1310.52 1077.74C1334.98 1071.69 1333.18 1042.05 1329.44 1021.96C1326.87 1008.18 1315.36 1002.8 1302.1 1003.17C1282.93 1007.76 1281.07 1021.83 1280.55 1039.19C1279.92 1060.22 1285.29 1079.78 1310.52 1077.74Z" id="part-06" fill="#004493" /><path d="M1046.98 981.647C1049.32 981.493 1051.67 981.373 1054.01 981.287C1098.47 979.771 1102.25 1019.89 1100.24 1053.63C1099.71 1062.5 1102.88 1091.61 1097.32 1097.16C1092.43 1098.34 1076.92 1098.68 1072.49 1096.71C1067.41 1092.95 1069.97 1079.26 1069.68 1074.66C1068.02 1048.33 1081.13 995.384 1036.3 1006.3L1035 1006.63C1006.57 1020.08 1028.7 1079.76 1018.58 1096.32C1015.13 1098.46 998.593 1099.04 994.503 1097.68C993.084 1097.21 991.932 1096.7 991.225 1095.34C989.105 1091.25 989.498 994.891 991.306 985.472C994.438 982.039 1014.34 982.183 1018.05 985.576C1019.86 989.027 1019.4 992.917 1019.41 996.904C1029.18 987.261 1033.68 984.682 1046.98 981.647Z" id="part-07" fill="#0058bc" /><path d="M917.515 1059.48C922.376 1047.61 944.297 992.196 949.348 985.26C953.886 982.25 971.456 981.68 975.284 986.502C975.398 993.446 951.596 1045.67 947.09 1056.15C935.318 1082.84 923.24 1113.58 910.656 1139.5C904.763 1139.71 888.897 1141.19 885.007 1137.62C884.321 1130.42 898.916 1099.39 902.419 1091.24C890.641 1059.54 874.342 1028.02 862.271 996.271C860.041 990.404 858.694 989.422 861.215 983.401C869.457 983.242 877.702 983.291 885.941 983.547C889.701 990.254 894.531 1003.08 897.609 1010.62L917.515 1059.48Z" id="part-08" fill="#0058bc" /><path d="M815.702 941.533C822.73 941.308 835.53 940.242 841.446 942.727C845.043 955.201 841.743 1071.74 842.609 1092.76C842.678 1094.42 841.84 1096.16 841.046 1097.62C834.153 1097.87 820.441 1099.2 814.994 1096.05C811.711 1084.69 814.898 967.011 813.961 947.364C813.869 945.42 814.826 943.275 815.702 941.533Z" id="part-09" fill="#0058bc" /><path d="M1569.55 941.56C1576.36 941.341 1589.9 940.222 1595.43 942.798C1598.69 952.136 1595.93 1071.53 1596.69 1089.11C1596.87 1093.37 1596.55 1095.06 1593.63 1097.81C1587.33 1097.95 1572.88 1099.48 1568.58 1095.05C1566.14 1074.65 1568.31 1040.41 1567.79 1019.49C1567.47 1006.41 1566.41 948.85 1569.55 941.56Z" id="part-10" fill="#414755" /><path d="M553.346 987.108L554.251 988.123C556.359 997.665 557.138 1048.79 552.381 1058.8C545.584 1073.11 515.062 1080.87 499.31 1086.4L498.125 1086.12C495.792 1082.43 496.919 1040.78 496.965 1033.24C533.471 1014.83 533.7 1028.05 553.346 987.108Z" id="part-11" fill="#ebea00" /><path d="M1382.11 1065.44C1388.85 1065.29 1403.69 1063.59 1409.25 1066.32C1415.63 1069.46 1413.94 1092.5 1411.3 1097.64C1403.85 1097.87 1393.51 1098.75 1386.52 1097.84C1376.55 1096.55 1379.54 1071.19 1382.11 1065.44Z" id="part-12" fill="#cecd00" /></svg>